<?xml version="1.0" encoding="UTF-8"?>
<svg id="Capa_2" data-name="Capa 2" xmlns="http://www.w3.org/2000/svg" viewBox="0 0 1346 213.6">
  <defs>
    <style>
      .cls-1 {
        fill: #e94e1b;
        stroke-width: 0px;
      }
    </style>
  </defs>
  <g id="Capa_1-2" data-name="Capa 1">
    <g>
      <path class="cls-1" d="M106.8,0C47.82,0,0,47.82,0,106.8s47.82,106.8,106.8,106.8,106.8-47.82,106.8-106.8S165.78,0,106.8,0ZM163.34,134.35c-13.53,52.19-57.02,59.92-60.89,58.96-2.32-.58-1.86-1.86-1.11-2.78.51-.63,1.19-1.11,1.93-1.44,43.54-19.46,34.94-58.6,34.94-58.6-.97-3.87-1.93-1.93-1.93-1.93-25.13,29-49.29,11.6-49.29,11.6-.97-1.93,2.9-2.9,2.9-2.9,59.92-22.23,16.43-60.89,16.43-60.89-63.79,65.72-5.8,100.52-5.8,100.52-18.36,1.93-37.69-2.9-47.36-25.13C28.11,94.13,108.25,19.33,108.25,19.33c11.6,9.67,31.9,54.12,31.9,54.12,3.87,0,4.83-4.83,4.83-4.83,0,0,25.71,37.41,18.36,65.72Z"/>
      <path class="cls-1" d="M1324.08,172.01s9.33-1.56,7.78-9.33c0,0,0-9.33-14-9.33h-14v32.67h7.78v-12.45s3.11-1.56,7.78,4.67l6.22,7.78h9.33l-10.89-14ZM1320.97,165.79h-9.33v-7.78h9.33s3.11,0,3.11,4.67c0,3.11-3.11,3.11-3.11,3.11Z"/>
      <path class="cls-1" d="M1317.86,197.74c-15.52,0-28.14-12.62-28.14-28.14s12.62-28.14,28.14-28.14,28.14,12.62,28.14,28.14-12.62,28.14-28.14,28.14ZM1317.86,144.07c-14.08,0-25.53,11.45-25.53,25.53s11.45,25.53,25.53,25.53,25.53-11.45,25.53-25.53-11.45-25.53-25.53-25.53Z"/>
      <g>
        <path class="cls-1" d="M366.93,15.11l27.65,158.23v22.46h-61.8l-3.67-36.39h-27.09l-3.95,36.39h-61.52v-22.46l27.65-158.23h102.71ZM324.6,114.22l-5.64-53.69h-6.77l-5.64,53.69h18.06Z"/>
        <path class="cls-1" d="M411.42,38.65h56.77v117.85h57.29v39.28h-114.06V38.65Z"/>
        <path class="cls-1" d="M660.36,38.65v19.53l-8.85,19.98h-55.99v78.34h64.84v39.28h-98.95c-13.54,0-22.91-8.08-22.91-19.53V58.18c0-11.45,9.37-19.53,22.91-19.53h98.95Z"/>
        <path class="cls-1" d="M791.09,38.65l25.52,137.61v19.53h-57.03l-3.39-31.65h-25l-3.65,31.65h-56.77v-19.53l25.52-137.61h94.79ZM752.03,124.85l-5.21-46.69h-6.25l-5.21,46.69h16.67Z"/>
        <path class="cls-1" d="M827.04,155.61l61.45-72.06v-5.39h-52.6l-8.85-19.98v-19.53h126.55v40.41l-61.71,72.06v5.39h64.06v39.28h-128.9v-40.18Z"/>
        <path class="cls-1" d="M1086.66,38.65l25.52,137.61v19.53h-57.03l-3.39-31.65h-25l-3.65,31.65h-56.77v-19.53l25.52-137.61h94.79ZM1047.6,124.85l-5.21-46.69h-6.25l-5.21,46.69h16.67Z"/>
        <path class="cls-1" d="M1241.86,38.65c13.28,0,22.66,8.08,22.66,19.53v61.73c0,7.41-6.51,15.71-15.1,17.73l17.97,38.61v19.53h-55.73l-15.36-48.94h-11.46v48.94h-57.03V38.65h114.06ZM1184.84,78.16v29.41h22.65v-29.41h-22.65Z"/>
      </g>
    </g>
  </g>
</svg>